<svg xmlns="http://www.w3.org/2000/svg" viewBox="0 0 1200 630" role="img" aria-label="Bhuvaneshwari M.C. semiconductor and quantum device researcher">
  <rect width="1200" height="630" fill="#f5f1e9"/>
  <g stroke="#1d1a26" stroke-opacity=".06">
    <path d="M0 70h1200M0 140h1200M0 210h1200M0 280h1200M0 350h1200M0 420h1200M0 490h1200M0 560h1200"/>
    <path d="M70 0v630M140 0v630M210 0v630M280 0v630M350 0v630M420 0v630M490 0v630M560 0v630M630 0v630M700 0v630M770 0v630M840 0v630M910 0v630M980 0v630M1050 0v630M1120 0v630"/>
  </g>
  <rect x="58" y="54" width="650" height="522" rx="28" fill="#17151f"/>
  <text x="100" y="130" fill="#d4ee54" font-family="monospace" font-size="22" font-weight="700">DEVICE STORY / FABRICATE → MEASURE → MODEL</text>
  <text x="100" y="245" fill="#f8f4ed" font-family="Arial, sans-serif" font-size="68" font-weight="800">Bhuvaneshwari M.C.</text>
  <text x="100" y="326" fill="#c8c0cf" font-family="Arial, sans-serif" font-size="36">Semiconductor &amp; Quantum Device Researcher</text>
  <text x="100" y="420" fill="#ff9d6e" font-family="Arial, sans-serif" font-size="24" font-weight="700">Nanofabrication · Characterization · Device Physics · Simulation</text>
  <text x="100" y="505" fill="#aaa3b7" font-family="monospace" font-size="22">KTH M.Sc. Nanotechnology · Greater Stockholm</text>
  <g transform="translate(870 75)">
    <circle cx="150" cy="150" r="132" fill="#17151f" stroke="#6d5dfc" stroke-width="3"/>
    <circle cx="150" cy="150" r="92" fill="none" stroke="#ff7648" stroke-opacity=".55" stroke-width="2"/>
    <g stroke="#f8f4ed" stroke-opacity=".18"><path d="M35 150h230M150 35v230M67 67l166 166M67 233 233 67"/></g>
    <circle cx="104" cy="94" r="8" fill="#ff7648"/><circle cx="191" cy="154" r="8" fill="#d4ee54"/><circle cx="132" cy="209" r="7" fill="#25b7d3"/>
    <path d="M135 280h30" stroke="#f5f1e9" stroke-width="15" stroke-linecap="round"/>
  </g>
  <g transform="translate(795 430)">
    <rect width="340" height="32" rx="4" fill="#6d5dfc"/><rect y="34" width="340" height="18" fill="#d4ee54"/><rect y="54" width="340" height="48" rx="4" fill="#25b7d3"/>
    <text x="10" y="22" fill="white" font-family="monospace" font-size="14">AlGaN barrier</text><text x="10" y="48" fill="#17151f" font-family="monospace" font-size="12">2DEG</text><text x="10" y="84" fill="#17151f" font-family="monospace" font-size="14">GaN</text>
  </g>
</svg>
